<?xml version="1.0" encoding="UTF-8" standalone="no"?>
<!-- Created with Inkscape (http://www.inkscape.org/) -->

<svg
   xmlns:dc="http://purl.org/dc/elements/1.1/"
   xmlns:cc="http://creativecommons.org/ns#"
   xmlns:rdf="http://www.w3.org/1999/02/22-rdf-syntax-ns#"
   xmlns:svg="http://www.w3.org/2000/svg"
   xmlns="http://www.w3.org/2000/svg"
   xmlns:sodipodi="http://sodipodi.sourceforge.net/DTD/sodipodi-0.dtd"
   xmlns:inkscape="http://www.inkscape.org/namespaces/inkscape"
   width="744.09448819"
   height="1052.3622047"
   id="svg2"
   version="1.1"
   inkscape:version="0.48.5 r10040"
   sodipodi:docname="pic.svg">
  <defs
     id="defs4">
    <inkscape:path-effect
       effect="spiro"
       id="path-effect3754"
       is_visible="true" />
    <inkscape:path-effect
       effect="spiro"
       id="path-effect3750"
       is_visible="true" />
    <inkscape:path-effect
       effect="spiro"
       id="path-effect3734"
       is_visible="true" />
    <inkscape:perspective
       sodipodi:type="inkscape:persp3d"
       inkscape:vp_x="-787.62914 : 999.71739 : 1"
       inkscape:vp_y="0 : 2285.8691 : 0"
       inkscape:vp_z="1911.8129 : 965.00145 : 1"
       inkscape:persp3d-origin="1272.205 : -1400.8052 : 1"
       id="perspective3332" />
  </defs>
  <sodipodi:namedview
     id="base"
     pagecolor="#ffffff"
     bordercolor="#666666"
     borderopacity="1.0"
     inkscape:pageopacity="0.0"
     inkscape:pageshadow="2"
     inkscape:zoom="1.8101934"
     inkscape:cx="562.96304"
     inkscape:cy="719.20719"
     inkscape:document-units="px"
     inkscape:current-layer="layer7"
     showgrid="false"
     inkscape:window-width="1920"
     inkscape:window-height="1017"
     inkscape:window-x="-8"
     inkscape:window-y="-8"
     inkscape:window-maximized="1" />
  <metadata
     id="metadata7">
    <rdf:RDF>
      <cc:Work
         rdf:about="">
        <dc:format>image/svg+xml</dc:format>
        <dc:type
           rdf:resource="http://purl.org/dc/dcmitype/StillImage" />
        <dc:title></dc:title>
      </cc:Work>
    </rdf:RDF>
  </metadata>
  <g
     inkscape:label="Layer 1"
     inkscape:groupmode="layer"
     id="layer1"
     style="display:inline">
    <path
       style="fill:#00000f;fill-opacity:0.94117647;fill-rule:nonzero;stroke:none"
       d="m 606.07967,149.81754 c -6.36607,0.73478 -69.14922,32.30214 -76.01434,34.38269 0.37764,3.33496 -10.79274,17.91565 -13.04496,22.6744 -17.57806,22.76403 -34.07292,46.48189 -48.05162,71.71912 -0.59649,-34.12764 -5.45563,-63.84771 0.21166,-95.60892 -25.03685,15.07586 -53.52239,28.99437 -75.27421,42.95267 4.54729,10.50124 -0.87068,21.29549 -2.56955,31.82497 -17.86319,78.54569 -48.94323,154.1725 -94.0242,221.05003 -8.32734,12.27669 -18.65141,23.05831 -28.5,34.1875 30.24196,-9.85204 60.29208,-20.26521 90.40625,-30.5 -4.23883,-8.90837 4.952,-16.13982 8.0625,-23.78125 12.91481,-22.76019 25.80342,-45.56287 37.34375,-69.03125 0.35555,30.26656 -1.17705,60.64711 0.25,90.84375 2.07633,7.09386 11.93705,7.92586 16.5116,2.79445 19.13422,-11.80772 38.84402,-23.20815 57.7384,-35.0757 3.39547,-5.64092 -3.82142,-9.98885 -3.125,-15.65625 -6.90807,-41.03904 6.64264,-82.20397 23.53125,-119.1875 16.258,-35.56537 38.43748,-67.86165 59.95301,-100.49408 14.71352,-25.98741 29.96786,-40.697 46.59546,-63.09463 z"
       id="path3005-0"
       inkscape:connector-curvature="0"
       sodipodi:nodetypes="ccccccccccccccccccc" />
  </g>
  <g
     inkscape:groupmode="layer"
     id="layer5"
     inkscape:label="Layer2"
     style="display:inline">
    <path
       style="fill:#ff9800;fill-opacity:1;fill-rule:nonzero;stroke:none"
       d="M 583.78125,165.59375 C 567.29511,173.71107 553.25423,186.32443 536,192.875 c -2.81888,12.06667 -11.46155,19.36719 -17.38679,28.79538 -21.67057,28.27827 -39.7017,59.13713 -56.17571,90.76712 -1.74539,-37.5538 -7.59113,-75.67949 -3.25,-113 -17.34791,10.29921 -35.60695,19.14484 -52.65625,30 1.89874,13.13385 -4.65156,25.41584 -6.375,38.1875 -19.06946,79.50754 -51.65451,156.25696 -98.8125,223.125 16.07377,-5.53233 32.24292,-10.54224 48.0625,-16.6875 1.8481,-11.67594 11.04552,-19.94557 15.55351,-30.55406 17.61695,-30.84197 33.88458,-62.63396 49.25899,-94.69594 3.55559,41.80036 -0.081,84.56235 1.875,125.90625 17.18219,-11.67644 36.07958,-21.62167 53.71875,-33 -6.34507,-17.25935 -4.76682,-36.4584 -2.9375,-54.46875 7.18915,-51.96001 32.66534,-99.0167 60.28125,-142.78125 13.40294,-19.84133 26.02399,-40.16231 39.3608,-59.97928 5.42163,-6.92259 11.51276,-13.16869 17.8892,-19.20822 z"
       id="path3005"
       inkscape:connector-curvature="0"
       sodipodi:nodetypes="cccccccccccccccccc" />
  </g>
  <g
     inkscape:groupmode="layer"
     id="layer6"
     inkscape:label="Layer3"
     style="display:inline">
    <path
       style="fill:#000000;display:inline"
       d="m 417.5034,367.75473 c -7.20978,0.27371 -14.28355,1.67234 -20.5,5.34375 -20.30513,7.43497 -42.65387,9.09579 -64.0837,6.82733 -7.32151,-2.66571 -12.0376,5.31605 -17.9938,8.32721 -9.3243,6.59153 -18.64497,13.18819 -27.9225,19.84546 28.18796,2.08072 57.29412,1.85761 84.71875,-4.03125 -3.51286,15.76424 -6.34315,33.72239 -18.78125,45.09375 -4.26342,2.21204 -11.64732,3.05605 -14.40625,-1.25 0.0583,-5.5792 -7.38062,-6.3385 -10.81401,-3.29926 -5.92019,2.1525 -11.17104,6.21582 -17.18599,7.51801 -7.93839,-1.8933 -12.68239,9.09436 -8.875,15.1875 6.09055,11.32721 21.20613,13.30999 32.75,11.03125 17.036,-3.62483 31.60408,-14.28296 45.55596,-24.12311 18.91883,-16.33689 24.00028,-42.2939 30.69404,-65.22064 4.34852,-4.09937 13.51797,-6.09738 12.375,-13.78125 -1.13001,-2.67824 -0.15166,-7.71843 -4.65625,-7.5 -0.29172,0.009 -0.58505,-0.0202 -0.875,0.0312 z"
       id="path3402-9"
       inkscape:connector-curvature="0" />
    <path
       style="fill:#000000;display:inline"
       d="m 457.84715,362.09848 c -12.13428,6.31196 -24.20598,12.71429 -36.25,19.15625 7.5374,22.64008 5.19243,47.24291 0.75,70.34375 -1.01936,7.75287 2.31825,16.94921 10.5625,19 15.57784,7.01101 33.36145,1.20922 47.08963,-7.33771 15.75704,-7.3346 30.16638,-20.59501 33.09787,-38.44354 4.02618,-14.46725 2.8115,-29.98273 3.90625,-44.59375 4.31244,-6.1216 -5.74095,-12.9078 -10.81943,-8.34112 -10.02651,5.31591 -20.54059,9.74777 -30.61807,14.90362 7.6875,16.13099 4.44108,35.14384 -0.6875,51.53125 -1.44542,3.43903 -3.4296,7.91551 -7.96875,5.96875 -2.72232,-0.40867 -7.33785,-1.31455 -5.71875,-5.21875 1.37607,-20.41604 3.54651,-40.99679 0.2983,-61.3408 -0.44374,-5.68941 -0.59938,-11.3959 -0.82955,-17.0967 -0.9375,0.48958 -1.875,0.97917 -2.8125,1.46875 z"
       id="path3404-4"
       inkscape:connector-curvature="0" />
    <path
       style="fill:#000000;display:inline"
       d="m 560.90965,360.87973 c -11.94488,5.84087 -23.18939,13.54675 -34.96875,19.9375 16.42401,16.01693 15.62582,41.85063 8.59375,62.09375 -2.21426,6.17391 1.20469,15.3522 8.78125,14.65625 5.76067,-0.96711 8.62849,-7.0762 13.6875,-9.46875 7.01171,-5.11188 16.63593,-9.97638 16.65625,-20 4.28184,-21.76654 2.70048,-45.69653 -8.0625,-65.21875 -1.11926,-1.34047 -2.90686,-2.216 -4.6875,-2 z"
       id="path3406-8"
       inkscape:connector-curvature="0" />
    <path
       style="fill:#000000;display:inline"
       d="m 629.59715,344.94223 c -14.19721,7.11973 -30.02367,11.47364 -43.15625,20.3125 -6.66417,11.11484 -13.68004,22.73948 -24.75,29.8125 -4.98347,4.1673 -8.05113,10.63485 -8.09375,17 -3.72706,4.49801 -0.63682,13.04852 5.90625,11.53125 3.49217,-0.2765 4.99314,-6.44917 8.34375,-2.21875 12.79591,7.83475 21.46061,21.08389 26.46875,34.9375 3.68785,3.80898 -2.18091,9.74731 2.6875,12.9375 5.74145,1.77955 10.30769,-4.7219 15.48197,-6.27196 8.06342,-4.32719 16.18532,-8.58326 24.26803,-12.94679 -10.35556,-18.97335 -17.76104,-41.67868 -37.21875,-53.5 -5.41865,-1.56537 -0.58957,-4.38554 1.34306,-6.97389 12.963,-14.80228 23.98378,-31.19411 35.15694,-47.43236 -2.14583,0.9375 -4.29167,1.875 -6.4375,2.8125 z"
       id="path3408-8"
       inkscape:connector-curvature="0" />
    <path
       style="fill:#000000;display:inline"
       d="m 668.97215,346.09848 c -11.81531,6.97239 -23.62579,13.98876 -35.5,20.875 15.85732,16.60077 15.52343,41.02623 14.81995,62.46751 -0.44449,10.99654 0.46565,21.98102 0.7113,32.96999 13.25725,-6.92541 26.47325,-13.93026 39.6875,-20.9375 -5.19348,-17.75262 -1.3656,-36.59248 -4.78028,-54.67978 -1.81376,-14.55774 -5.81699,-29.02805 -13.12597,-41.75772 -0.60417,0.35417 -1.20833,0.70833 -1.8125,1.0625 z"
       id="path3410-2"
       inkscape:connector-curvature="0" />
    <path
       style="fill:#000000;display:inline"
       d="m 719.40965,321.34848 c -14.68023,6.71185 -28.39754,21.42256 -48.67653,23.71843 -6.37294,4.47182 -1.46676,1.30872 -6.20073,7.82167 -9.29921,8.01526 -11.38357,7.30414 -20.6921,15.30857 27.81335,3.28703 39.42256,-1.52223 62.88692,-14.57352 9.03398,-5.52513 20.6175,-9.73769 25.58869,-19.7439 1.26456,-5.31338 -2.92172,-8.31496 -6.17187,-10.3125 -0.64912,-1.95013 -4.64644,-2.58647 -6.73438,-2.21875 z"
       id="path3412-4"
       inkscape:connector-curvature="0"
       sodipodi:nodetypes="cccccccc" />
    <path
       style="fill:#000000;display:inline"
       d="m 726.3784,362.41098 c -10.62512,6.03489 -22.40684,10.70263 -32.125,18.09375 -3.57963,6.55461 -8.41849,13.40354 -16.375,14.375 -7.99533,3.91656 -15.51976,9.81554 -21.59375,15.96875 -1.45255,3.66644 2.79234,5.89467 5.6875,6.0625 2.8417,6.08716 11.0449,4.41578 15.43045,1.07684 20.99017,-11.07652 44.4581,-23.14575 55.1008,-45.45184 0.82865,-3.99684 -1.01361,-10.60569 -6.125,-10.125 z"
       id="path3414-5"
       inkscape:connector-curvature="0" />
    <path
       style="fill:#000000;display:inline"
       d="m 747.6284,397.59848 c -14.74605,7.98699 -29.68422,15.73863 -44.25,23.875 -8.12467,2.79313 -16.90054,-0.63438 -25.0625,-1.03125 -6.92763,2.48337 -10.44405,9.63195 -16.57263,13.37901 -6.14567,5.34913 -1.90277,12.25265 -8.06936,17.57766 22.45077,10.39003 40.4299,5.89017 59.04824,-10.76917 13.50455,-9.63269 28.17375,-18.81658 35.25,-34.4375 1.85588,-3.41573 2.75946,-7.21127 3.90625,-10.90625 -1.41667,0.77083 -2.83333,1.54167 -4.25,2.3125 z"
       id="path3416-5"
       inkscape:connector-curvature="0"
       sodipodi:nodetypes="ccccccccc" />
  </g>
  <g
     inkscape:groupmode="layer"
     id="layer2"
     inkscape:label="Layer"
     style="display:inline">
    <path
       style="fill:#666666;display:inline"
       id="path3404"
       d="m 457.12645,365.74124 c 0.20663,6.49379 0.9435,12.96412 1.47326,19.43897 0.90575,8.94298 0.87871,17.80286 0.37625,26.76213 -0.385,5.20177 -0.96773,10.38489 -1.49087,15.57353 -0.27794,2.71748 -0.46103,5.44313 -0.45736,8.17518 0.057,1.61618 -0.0995,3.27628 0.2733,4.86411 0.41151,1.1269 0.99034,1.32355 1.86496,1.78697 0.59062,0.33161 1.26125,0.52597 1.87992,0.79798 1.75195,0.93804 3.56588,1.68362 5.48321,2.20432 2.91975,0.56263 5.91457,0.72265 8.87583,0.51842 1.52819,-0.18906 2.41667,-1.68289 4.5776,-4.83245 3.62232,-6.41376 5.59672,-13.58043 6.7556,-20.81816 0.26923,-1.68145 0.44873,-3.37604 0.6731,-5.06405 1.0215,-8.18086 0.79541,-16.41527 -0.25373,-24.57156 -0.31201,-1.91701 -0.76969,-3.83737 -1.64731,-5.57988 l 27.32692,-13.05302 0,0 c -0.1169,-0.0722 -0.22541,-0.27294 -0.35069,-0.21655 -0.14786,0.0666 -0.15802,0.29238 -0.17584,0.45354 -0.19119,1.72858 0.39954,3.48504 0.25763,5.21283 0.19175,8.55961 0.10996,17.14054 -0.72148,25.66868 -0.96547,9.04702 -2.10431,18.22252 -6.11128,26.51505 -1.70747,3.15477 -3.37931,6.05419 -5.67921,8.82966 -8.02894,9.68914 -21.21093,14.35588 -31.41818,20.40675 -0.91109,0.42023 -1.80318,0.88438 -2.73327,1.2607 -4.4479,1.79964 -9.22852,2.6667 -13.99504,3.00798 -3.32385,0.0584 -6.68119,-0.017 -9.88071,-1.03131 -1.99719,-0.67996 -3.92907,-1.50522 -5.89825,-2.25921 -1.11637,-0.4342 -2.20659,-0.97664 -3.14998,-1.71822 -0.94501,-0.90366 -1.71349,-1.92794 -2.04894,-3.21752 -0.5243,-1.88913 -0.42287,-3.81265 -0.33986,-5.75587 0.10635,-2.89152 0.12458,-5.79795 0.63994,-8.65554 0.91568,-5.33526 1.96964,-10.64777 2.70722,-16.01293 1.01521,-8.85837 1.26031,-17.52279 0.043,-26.39034 -0.76181,-6.1725 -1.4917,-12.39788 -3.22682,-18.38859 l 26.37112,-13.91156 z"
       inkscape:connector-curvature="0"
       sodipodi:nodetypes="cccccccccccsccccccccccscscccccccccccc" />
    <path
       style="fill:#666666;display:inline"
       id="path3406"
       d="m 563.19108,362.58627 c 2.38233,4.74161 4.15432,9.71991 5.6844,14.79021 1.87302,6.93559 3.01234,14.11294 3.17556,21.30429 0.0344,1.51312 -0.0294,3.02687 -0.0442,4.54031 -0.27487,7.11344 -1.44114,14.1413 -2.68511,21.13618 -0.44845,2.05812 0.0254,2.11572 -0.88221,4.65884 l -23.94874,18.06672 0,0 c -0.45255,-0.29994 -0.90511,-0.59988 -1.35766,-0.89982 -0.71725,-1.00161 -1.05589,-1.1726 -1.17857,-2.3908 -0.21095,-2.09467 1.13782,-4.87076 1.43478,-6.92966 1.84307,-6.93242 3.46765,-13.94099 3.93599,-21.12433 0.0414,-1.45822 0.13252,-2.91588 0.12432,-4.37466 -0.0389,-6.90873 -1.24325,-13.80633 -3.2842,-20.39415 -1.66014,-4.66586 -3.46214,-9.49574 -6.81418,-13.24185 l 25.83971,-15.14128 z"
       inkscape:connector-curvature="0"
       sodipodi:nodetypes="cccccccccsccscccc" />
    <path
       style="fill:#666666;display:inline"
       id="path3408"
       d="m 621.08229,351.56957 c -3.64141,5.14846 -7.29218,10.28457 -11.09894,15.31342 -5.50537,7.04698 -11.16683,13.98838 -17.30999,20.49178 -55.15846,49.16001 -23.86006,-12.55478 -2.1801,3.57265 4.30614,3.30929 8.63451,6.59047 12.88711,9.96858 4.07075,3.30724 7.898,6.99449 11.0206,11.22771 0.65504,0.88801 1.24318,1.82348 1.86477,2.73522 3.59319,6.03306 6.67095,12.36709 9.69666,18.70044 1.05597,2.09315 1.95294,4.26915 3.08506,6.32449 0.57107,1.03677 1.22123,1.95843 1.70339,3.04084 l -26.4398,14.13929 0,0 c 0.0433,-0.13916 0.14566,-0.27261 0.12984,-0.41748 -0.0503,-0.46096 -0.73478,-2.21841 -0.82007,-2.44748 -0.82687,-2.22075 -1.6507,-4.44266 -2.49339,-6.65748 -2.56788,-6.34555 -5.53014,-12.55281 -9.35296,-18.25052 -3.58224,-4.93805 -7.60277,-9.53767 -12.52707,-13.19635 -25.09998,-16.32757 -20.52721,-10.70106 6.07092,-25.87881 -0.23773,-0.11734 -0.82007,-0.44541 -1.1328,-0.46573 -0.13005,-0.008 -0.25853,0.24602 -0.35662,0.16022 -0.25081,-0.21937 -0.30938,-0.54818 -0.40402,-0.84287 -14.33234,15.52037 -45.23148,50.40938 1.09386,-11.21034 3.31332,-4.59602 6.60771,-9.24874 9.23306,-14.28028 l 27.33049,-12.02735 z"
       inkscape:connector-curvature="0"
       sodipodi:nodetypes="cccccsccsccccsccccccccccc" />
    <path
       style="fill:#666666;display:inline"
       id="path3410"
       d="m 670.38675,348.8265 c 1.87357,4.1059 3.72081,8.22847 5.1171,12.52687 0.42775,1.3168 0.79505,2.65248 1.19257,3.97871 2.50547,9.15614 3.53813,18.60004 4.35126,28.02875 0.56005,6.81315 0.8192,13.64624 0.9906,20.47873 0.1488,4.04502 0.0958,8.09617 0.36937,12.13562 0.16378,2.53311 0.41303,5.07829 0.94165,7.56441 0.0475,0.11745 0.0949,0.2349 0.1424,0.35235 0,0 -26.61298,14.07019 -26.61298,14.07019 l 0,0 c 10e-4,-0.1862 0.003,-0.3724 0.004,-0.55859 -0.0654,-2.66631 -0.47363,-5.30557 -0.55847,-7.9704 -0.14664,-4.18816 -0.0337,-8.36783 0.13099,-12.55558 0.15919,-6.93274 0.32311,-13.86996 0.0613,-20.80279 -0.48305,-9.22138 -1.39368,-18.46285 -4.28788,-27.28852 -1.85002,-5.22807 -3.92889,-10.53372 -7.59886,-14.78812 0,0 25.75714,-15.17163 25.75714,-15.17163 z"
       inkscape:connector-curvature="0" />
    <path
       style="fill:#666666;display:inline"
       id="path3412"
       d="m 668.98119,348.28076 c 3.99749,0.56381 11.39508,-0.50748 15.17851,-1.61982 8.25466,-2.29823 6.46381,-3.43899 37.01515,-23.06611 0.80973,3.34666 4.92126,1.56557 7.38113,4.55364 -0.31952,1.3999 -1.93075,2.28619 -2.84461,3.19042 -12.70959,9.49735 -27.06773,16.64375 -41.26657,23.65837 -7.44173,3.34797 -14.95174,6.60229 -22.76792,8.9871 -2.49942,0.71366 -3.74317,1.13739 -6.24622,1.60401 -2.40149,0.44768 -4.82719,0.48284 -7.25469,0.65549 z"
       inkscape:connector-curvature="0"
       sodipodi:nodetypes="cccccccscc" />
    <path
       style="fill:#666666;display:inline"
       id="path3414"
       d="m 681.42558,395.74222 c 20.56702,-4.37042 18.19432,-5.68182 -2.07523,5.76125 -1.04836,0.58398 2.01877,-1.29902 3.0037,-1.98458 2.55906,-1.78124 3.11091,-2.30446 5.52009,-4.26398 4.2489,-3.6006 7.96052,-7.74098 11.21072,-12.25019 0.76984,-1.18251 1.62111,-2.32603 2.2643,-3.58724 0.10012,-0.19632 0.1593,-0.41206 0.26247,-0.60679 0.0379,-0.0716 0.10827,-0.24992 0.15724,-0.18536 8.40161,-4.0592 17.88843,-9.48559 26.58115,-14.19675 l 0,0 c 0.20564,0.43832 0.5011,0.84486 0.61693,1.31496 0.12432,0.5045 -0.35078,1.15696 -0.54691,1.5275 -0.77951,1.4727 -1.64188,2.88318 -2.68609,4.19035 -3.44692,4.7779 -7.27452,9.25498 -11.66722,13.19871 -0.88656,0.77931 -1.75126,1.58421 -2.65967,2.33794 -9.8408,8.1651 -22.55226,14.17403 -33.0272,20.18126 -1.05699,0.60616 -2.15685,1.13659 -3.26253,1.64856 -1.07058,0.49572 -2.17487,0.91512 -3.26231,1.37269 -4.77654,1.64273 -0.0286,-3.62516 -5.14241,-3.84763 z"
       inkscape:connector-curvature="0"
       sodipodi:nodetypes="ccsccscccccsccsssccc" />
    <path
       style="fill:#666666;display:inline"
       id="path3416"
       d="m 682.06356,421.1818 c 2.82361,1.70569 5.99898,1.94185 9.06282,2.28698 3.62456,0.31714 7.26665,0.49658 10.89457,0.13308 2.64998,-0.26552 3.54018,-0.53271 6.17736,-1.09607 26.95487,-13.00157 13.63731,-5.78933 -3.53127,6.738 -0.50133,0.36557 0.98456,-0.7705 1.46941,-1.17069 0.95191,-0.78566 1.89132,-1.6006 2.79015,-2.48179 1.04753,-0.82045 1.96316,-1.81503 2.6896,-3.07555 0.49284,-0.87454 0.94631,-1.78399 1.51566,-2.57742 0.9844,-1.37181 -0.24654,0.71134 0.67027,-0.91417 0.11371,-0.097 0.22743,-0.19381 0.34114,-0.29072 l 27.79128,-14.80392 0,0 c -0.093,0.17993 -0.18603,0.35984 -0.27905,0.53976 -0.96486,0.6928 0.17167,-0.21432 -0.73733,0.85873 -0.13105,0.1547 -0.32177,0.20906 -0.45433,0.36166 -0.154,0.17728 -0.2409,0.43611 -0.39391,0.61478 -1.30075,1.51893 0.30117,-0.76933 -0.90071,1.03132 -0.84318,1.42551 -1.41456,3.08514 -2.53871,4.2328 -1.20534,1.07691 -0.576,0.4836 -1.87826,1.79669 -0.43834,0.39684 -0.9057,0.73873 -1.35309,1.11875 -0.54175,0.46018 -1.05217,0.98293 -1.61413,1.40169 -25.35401,18.89275 -17.65647,13.87176 -28.83932,21.07006 -5.59548,3.28286 -11.36565,6.12974 -17.4883,7.32264 -6.00456,1.01499 -11.85313,1.30985 -17.89873,0.68375 -3.48929,-0.35367 -6.92123,-0.99105 -10.3221,-2.05917 z"
       inkscape:connector-curvature="0"
       sodipodi:nodetypes="ccscccccscccccssccccssccccc" />
    <path
       style="fill:#666666;display:inline"
       id="path3402"
       d="m 331.24264,380.82795 c 4.60723,0.87423 9.30292,1.04481 13.97539,1.27777 6.07493,0.26891 12.16756,0.27452 18.23396,-0.18588 4.55553,-0.34573 5.8047,-0.57542 10.33421,-1.17479 9.63249,-1.40521 19.08699,-3.8234 28.46935,-6.378 3.34303,-0.99971 6.73927,-1.80176 10.0721,-2.83637 1.69237,-0.52536 3.057,-0.86761 4.4582,-1.93021 -43.10222,25.57373 -28.16115,5.3211 -24.46164,17.1889 0.0361,0.11594 -0.0931,0.25767 -0.20694,0.29986 -0.20697,0.0767 -0.44247,-0.003 -0.66179,0.022 -0.9017,0.10178 -0.81057,0.14426 -1.67282,0.52893 -8.58329,5.9694 -0.59882,0.37427 23.25131,-13.09596 0.46829,-0.26449 -0.93991,0.53042 -1.36613,0.85843 -1.73485,1.33511 -2.70574,3.0961 -3.75394,4.96878 -2.01666,4.35303 -3.10372,9.04945 -4.29482,13.67308 -1.48931,5.78124 -0.9984,3.90143 -2.65615,9.87952 -2.90396,9.74797 -6.33474,19.47574 -11.80378,28.12189 -1.16471,1.84133 -2.50188,3.56773 -3.75282,5.3516 -4.05673,5.02859 -8.75677,9.58039 -14.39399,12.82433 -10.83734,6.23635 -21.61157,14.80386 -34.27297,17.42104 -1.88655,0.38995 -3.82095,0.4948 -5.73142,0.74221 -5.95487,0.12703 -12.19338,-0.47507 -17.42527,-3.59365 -2.28537,-1.36224 -2.51929,-1.87866 -4.19148,-3.73664 -1.08993,-1.98851 -1.79261,-4.01412 -0.40802,-6.12275 0.41792,-0.63646 1.0889,-1.06453 1.63335,-1.59679 4.31791,1.95508 8.766,-2.59431 23.46658,-8.49575 -0.0806,0.42837 0.14145,0.86023 0.21217,1.29035 0.36552,0.50829 0.65963,1.07648 1.09655,1.52488 3.11771,3.19958 8.06481,4.37398 12.3584,4.618 12.17879,-0.3931 15.41169,-6.81938 17.19723,-9.4498 5.51307,-8.24015 8.82886,-17.68766 11.46731,-27.16911 1.14586,-4.71192 1.24821,-4.92565 2.18316,-9.54522 0.93007,-4.59542 1.64356,-9.24875 3.01428,-13.74351 0.70859,-1.88129 0.8857,-2.55554 1.81633,-4.28288 0.2916,-0.54122 1.43505,-2.49986 2.07547,-2.88122 25.40082,-15.12596 16.68739,-13.12127 27.97861,-15.5306 0.98871,-0.0355 2.23005,-0.16996 3.19735,0.14086 0.70295,0.22587 3.62438,1.98223 2.42021,2.87162 -8.05939,5.95256 -17.15975,10.34841 -25.73962,15.52262 -1.27682,0.13564 -2.52873,0.48189 -3.77639,0.77358 -3.13976,0.73404 -6.27435,1.49055 -9.39809,2.29029 -9.32493,2.27065 -18.67819,4.53939 -28.21385,5.73948 -9.81352,1.13622 -19.6714,1.79862 -29.55789,1.56582 -5.22002,-0.0446 -10.43468,-0.21176 -15.65202,-0.37129 l 24.48032,-17.3754 z"
       inkscape:connector-curvature="0"
       sodipodi:nodetypes="ccsccscccccsscscscsscscscccscccsccscsscscccccc" />
  </g>
  <g
     inkscape:groupmode="layer"
     id="layer7"
     inkscape:label="Layer4"
     style="display:inline">
    <path
       style="fill:#ff9800;display:inline;fill-opacity:1"
       d="m 559.23665,263.06076 c -4.30644,3.18991 -10.47775,4.34037 -13.90625,8.65625 -1.51843,5.16788 6.37764,5.33323 9,8 20.25726,12.61182 33.96706,34.35928 39.4375,57.34375 4.62085,-5.15823 15.20782,-3.94748 16.625,-11.96875 -8.16438,-25.5915 -25.03218,-49.84652 -49.375,-62 -0.58757,-0.0644 -1.19227,-0.18183 -1.78125,-0.0312 z"
       id="path3694-7-1"
       inkscape:connector-curvature="0" />
    <path
       style="fill:#ff9800;display:inline;fill-opacity:1"
       d="m 591.27099,218.90245 c -7.26964,4.43835 -14.57879,8.89703 -21.84375,13.375 29.66554,11.10608 50.71762,38.15834 63.78125,65.8125 3.67764,8.18969 6.5228,16.81244 8.53125,25.59375 7.40638,-3.6873 14.78213,-7.43567 22.1875,-11.125 -10.06571,-34.82888 -30.72652,-67.7131 -61.03125,-88.15625 -3.6243,-1.70882 -7.89779,-6.06324 -11.625,-5.5 z"
       id="path3694-1-5"
       inkscape:connector-curvature="0" />
    <path
       style="fill:#ff9800;display:inline;fill-opacity:1"
       d="m 538.7054,295.15451 c -3.6793,1.90748 -5.73894,6.17865 -9.28234,8.53789 -2.68602,1.51567 -4.812,6.89096 -0.31141,7.36836 6.77081,-2.28739 10.35524,5.81788 14.5625,9.53125 6.72465,8.19271 8.97968,18.8406 10.28125,29.09375 3.29322,-6.34037 13.44047,-6.89586 14.28125,-14.59375 -2.84932,-15.78456 -12.1891,-31.10657 -26.125,-39.21875 -1.12884,-0.43684 -2.17637,-0.90293 -3.40625,-0.71875 z"
       id="path3819-2"
       inkscape:connector-curvature="0" />
  </g>
  <g
     inkscape:groupmode="layer"
     id="layer8"
     inkscape:label="Layer5"
     style="display:inline">
    <path
       style="fill:#1a1a1a;display:inline"
       id="path3694-7"
       d="m 548.4406,278.05671 c 4.27136,2.12771 8.20024,4.71754 11.96883,7.49108 6.05202,4.54056 10.86078,10.21121 15.52891,15.86678 6.07845,7.193 10.58334,15.25389 14.46265,23.5396 1.68322,3.9262 3.1389,7.92382 4.43487,11.96454 0,0 -10.23682,4.97978 -10.23682,4.97978 l 0,0 c -1.12456,-4.05738 -2.45412,-8.06416 -4.08186,-11.9852 -3.75798,-8.24596 -8.22121,-16.23528 -14.32227,-23.3185 -4.70212,-5.54841 -9.53475,-11.11038 -15.60536,-15.52729 -3.7826,-2.70029 -7.70879,-5.28705 -12.10282,-7.14279 0,0 9.95387,-5.868 9.95387,-5.868 z"
       inkscape:connector-curvature="0" />
    <path
       style="fill:#1a1a1a;display:inline"
       id="path3694-1"
       d="m 575.84842,237.25701 c 6.13822,3.16526 11.78425,7.01803 17.19996,11.14407 8.69711,6.75476 15.6076,15.1907 22.31599,23.60415 8.73511,10.70067 15.20892,22.69243 20.78371,35.01862 2.41888,5.8408 4.51079,11.78785 6.37317,17.79901 0,0 -14.71092,7.40815 -14.71092,7.40815 l 0,0 c -1.61607,-6.03594 -3.52673,-11.99661 -5.86587,-17.82974 -5.40047,-12.26708 -11.8144,-24.15234 -20.582,-34.68967 -6.75725,-8.25408 -13.70201,-16.52834 -22.42586,-23.09914 -5.43582,-4.01709 -11.07801,-7.86525 -17.39249,-10.62594 0,0 14.30431,-8.72951 14.30431,-8.72951 z"
       inkscape:connector-curvature="0" />
    <path
       style="fill:#1a1a1a;display:inline"
       id="path3819"
       d="m 527.95128,310.31749 c 3.0131,0.43965 5.41397,2.97776 7.7318,5.24609 2.76032,2.78051 5.43802,5.72241 7.80539,9.02714 1.65584,2.31145 2.03838,3.09167 3.49787,5.58182 2.65136,4.67666 4.16386,10.02689 5.57897,15.37845 0.1082,0.40443 0.21632,0.80887 0.32449,1.2133 0,0 -7.78163,5.90844 -7.78163,5.90844 l 0,0 c -0.0722,-0.42598 -0.14428,-0.85193 -0.21638,-1.2779 -1.03957,-5.38168 -2.5792,-10.62272 -5.11794,-15.26369 -1.4389,-2.46405 -1.77806,-3.18184 -3.42672,-5.45356 -2.36173,-3.25424 -5.04296,-6.12804 -7.84985,-8.76494 -2.29138,-2.04389 -4.73653,-4.47856 -7.67939,-4.27022 0,0 7.13339,-7.32493 7.13339,-7.32493 z"
       inkscape:connector-curvature="0" />
  </g>
</svg>
